<svg width="32" height="32" viewBox="0 0 32 32" fill="none" xmlns="http://www.w3.org/2000/svg">
<g clip-path="url(#clip0_5_25)">
<path opacity="0.01" d="M32 0H0V32H32V0Z" fill="black" fill-opacity="0.01"/>
<path fill-rule="evenodd" clip-rule="evenodd" d="M18.5835 6.30598C16.8787 5.84774 15.0787 5.84616 13.3747 6.30151C8.02852 7.72967 4.84374 13.2597 6.28139 18.6084C7.71872 23.9572 13.2544 27.1516 18.6007 25.7235C23.9469 24.2953 27.1317 18.7653 25.694 13.4166L23.0495 14.1293C24.1022 18.0459 21.7982 22.0319 17.8834 23.0777C13.9685 24.1234 9.9785 21.8123 8.92583 17.8957C7.87314 13.9791 10.1772 9.99307 14.0921 8.94733C15.3313 8.61626 16.6308 8.61739 17.8709 8.95013L18.5835 6.30598ZM16.19 10.8174C16.7333 10.8871 17.1252 11.2214 17.1162 11.6081L17.1444 14.8572H20.5731C22.1004 14.8415 22.0334 17.1579 20.507 17.1428H15.9892C15.3655 17.1427 14.8599 16.7888 14.8598 16.3521V11.6081C14.8518 11.1063 15.4968 10.7233 16.2009 10.8174H16.19ZM22.2857 8C21.3389 8 20.5715 8.7675 20.5715 9.71424C20.5715 10.661 21.3389 11.4285 22.2857 11.4285C23.2324 11.4285 24 10.661 24 9.71424C24 8.76749 23.2324 8 22.2857 8ZM4.36369 0H27.6363C30.5454 0 32 1.45455 32 4.36364V27.6364C32 30.5455 30.5454 32 27.6363 32H4.36369C1.45463 32 0 30.5455 0 27.6364V4.36364C0 1.45455 1.45463 0 4.36369 0Z" fill="url(#paint0_radial_5_25)"/>
</g>
<defs>
<radialGradient id="paint0_radial_5_25" cx="0" cy="0" r="1" gradientUnits="userSpaceOnUse" gradientTransform="translate(16.0002 16) scale(16)">
<stop stop-color="#FF5683"/>
<stop offset="1" stop-color="#FF5683" stop-opacity="0"/>
</radialGradient>
<clipPath id="clip0_5_25">
<rect width="32" height="32" fill="white"/>
</clipPath>
</defs>
</svg>
