<svg width="32" height="32" viewBox="0 0 32 32" fill="none" xmlns="http://www.w3.org/2000/svg">
<g clip-path="url(#clip0_5_30)">
<path opacity="0.01" d="M32 0H0V32H32V0Z" fill="black" fill-opacity="0.01"/>
<path fill-rule="evenodd" clip-rule="evenodd" d="M4.36363 0H27.6364C30.5455 0 32 1.45455 32 4.36364V27.6364C32 30.5455 30.5455 32 27.6364 32H4.36363C1.45454 32 0 30.5455 0 27.6364V4.36364C0 1.45455 1.45454 0 4.36363 0ZM15.9822 5.95089C13.4096 5.94979 10.8369 6.92744 8.88173 8.88617C4.97159 12.8035 4.96961 19.1928 8.88173 23.1116C12.7941 27.0303 19.1722 27.0358 23.0826 23.1182L21.1451 21.1742C18.2817 24.0424 13.6861 24.0418 10.8215 21.1732C7.95684 18.3035 7.95546 13.6999 10.8199 10.8316C13.5936 8.05325 17.9878 7.97578 20.8645 10.5817C19.7181 11.7798 18.7316 12.8892 18.7819 13.0906C18.9086 13.5974 26.8482 15.5823 27.2283 15.2022C27.6078 14.8219 25.6229 6.88006 25.1161 6.75334C24.9264 6.70599 23.9219 7.5942 22.8103 8.64617C20.8901 6.85839 18.4395 5.95321 15.9821 5.952L15.9822 5.95089Z" fill="url(#paint0_radial_5_30)"/>
</g>
<defs>
<radialGradient id="paint0_radial_5_30" cx="0" cy="0" r="1" gradientUnits="userSpaceOnUse" gradientTransform="translate(15.9934 15.9981) scale(16 15.8052)">
<stop stop-color="#FF5683"/>
<stop offset="1" stop-color="#FF5683" stop-opacity="0"/>
</radialGradient>
<clipPath id="clip0_5_30">
<rect width="32" height="32" fill="white"/>
</clipPath>
</defs>
</svg>
