<svg width="32" height="32" viewBox="0 0 32 32" fill="none" xmlns="http://www.w3.org/2000/svg">
<g clip-path="url(#clip0_5_35)">
<path opacity="0.01" d="M32 0H0V32H32V0Z" fill="black" fill-opacity="0.01"/>
<path fill-rule="evenodd" clip-rule="evenodd" d="M18.5835 6.30598C16.8788 5.84774 15.0787 5.84616 13.3748 6.30158C8.02853 7.72974 4.84377 13.2597 6.28139 18.6085C7.71872 23.9573 13.2544 27.1517 18.6007 25.7236C23.9468 24.2954 27.1317 18.7654 25.694 13.4166L23.0495 14.1294C24.1022 18.046 21.7982 22.032 17.8835 23.0778C13.9684 24.1235 9.97849 21.8124 8.9258 17.8958C7.87311 13.9792 10.1772 9.99313 14.0921 8.9474C15.3313 8.61634 16.6308 8.61745 17.871 8.9502L18.5835 6.30598ZM16.1899 10.8174C16.7332 10.8871 17.1252 11.2214 17.1162 11.6081L17.1444 14.8572H20.573C22.1003 14.8415 22.0332 17.1579 20.5069 17.1428H15.9893C15.3655 17.1427 14.8599 16.7888 14.8599 16.3521V11.6081C14.8519 11.1063 15.4968 10.7233 16.201 10.8174H16.1899ZM4.36372 0H27.6363C30.5453 0 32 1.45455 32 4.36364V27.6364C32 30.5455 30.5453 32 27.6363 32H4.36372C1.4547 32 0 30.5455 0 27.6364V4.36364C0 1.45455 1.4547 0 4.36372 0Z" fill="url(#paint0_radial_5_35)"/>
</g>
<defs>
<radialGradient id="paint0_radial_5_35" cx="0" cy="0" r="1" gradientUnits="userSpaceOnUse" gradientTransform="translate(14.9681 15.8701) rotate(0.217516) scale(17.104 16)">
<stop stop-color="#FF5683"/>
<stop offset="1" stop-color="#FF5683" stop-opacity="0"/>
</radialGradient>
<clipPath id="clip0_5_35">
<rect width="32" height="32" fill="white"/>
</clipPath>
</defs>
</svg>
